<svg width="25" height="24" viewBox="0 0 25 24" fill="none" xmlns="http://www.w3.org/2000/svg">
<g id="material-symbols:star-rounded">
<path id="Vector" d="M12.5 17.2752L8.34999 19.7752C8.16666 19.8919 7.97499 19.9419 7.77499 19.9252C7.57499 19.9085 7.39999 19.8419 7.24999 19.7252C7.09999 19.6085 6.98333 19.4629 6.89999 19.2882C6.81666 19.1135 6.79999 18.9175 6.84999 18.7002L7.94999 13.9752L4.27499 10.8002C4.10833 10.6502 4.00433 10.4792 3.96299 10.2872C3.92166 10.0952 3.93399 9.90786 3.99999 9.7252C4.06599 9.54253 4.16599 9.39253 4.29999 9.2752C4.43399 9.15786 4.61733 9.08286 4.84999 9.0502L9.69999 8.6252L11.575 4.1752C11.6583 3.9752 11.7877 3.8252 11.963 3.7252C12.1383 3.6252 12.3173 3.5752 12.5 3.5752C12.6827 3.5752 12.8617 3.6252 13.037 3.7252C13.2123 3.8252 13.3417 3.9752 13.425 4.1752L15.3 8.6252L20.15 9.0502C20.3833 9.08353 20.5667 9.15853 20.7 9.2752C20.8333 9.39186 20.9333 9.54186 21 9.7252C21.0667 9.90853 21.0793 10.0962 21.038 10.2882C20.9967 10.4802 20.8923 10.6509 20.725 10.8002L17.05 13.9752L18.15 18.7002C18.2 18.9169 18.1833 19.1129 18.1 19.2882C18.0167 19.4635 17.9 19.6092 17.75 19.7252C17.6 19.8412 17.425 19.9079 17.225 19.9252C17.025 19.9425 16.8333 19.8925 16.65 19.7752L12.5 17.2752Z" fill="#fad9cb"/>
</g>
</svg>
