<svg width="54" height="47" viewBox="0 0 54 47" fill="none" xmlns="http://www.w3.org/2000/svg">
<path id="Vector" d="M6.58333 17.6665L10.9583 4.5415H43.0417L47.4167 17.6665M43.0417 32.2498C41.8813 32.2498 40.7686 31.7889 39.9481 30.9684C39.1276 30.148 38.6667 29.0352 38.6667 27.8748C38.6667 26.7145 39.1276 25.6017 39.9481 24.7812C40.7686 23.9608 41.8813 23.4998 43.0417 23.4998C44.202 23.4998 45.3148 23.9608 46.1353 24.7812C46.9557 25.6017 47.4167 26.7145 47.4167 27.8748C47.4167 29.0352 46.9557 30.148 46.1353 30.9684C45.3148 31.7889 44.202 32.2498 43.0417 32.2498ZM10.9583 32.2498C9.79801 32.2498 8.68521 31.7889 7.86474 30.9684C7.04427 30.148 6.58333 29.0352 6.58333 27.8748C6.58333 26.7145 7.04427 25.6017 7.86474 24.7812C8.68521 23.9608 9.79801 23.4998 10.9583 23.4998C12.1187 23.4998 13.2315 23.9608 14.0519 24.7812C14.8724 25.6017 15.3333 26.7145 15.3333 27.8748C15.3333 29.0352 14.8724 30.148 14.0519 30.9684C13.2315 31.7889 12.1187 32.2498 10.9583 32.2498ZM47.1833 3.08317C46.6 1.3915 44.9667 0.166504 43.0417 0.166504H10.9583C9.03333 0.166504 7.4 1.3915 6.81667 3.08317L0.75 20.5832V43.9165C0.75 44.6901 1.05729 45.4319 1.60427 45.9789C2.15125 46.5259 2.89312 46.8332 3.66667 46.8332H6.58333C7.35688 46.8332 8.09875 46.5259 8.64573 45.9789C9.19271 45.4319 9.5 44.6901 9.5 43.9165V40.9998H44.5V43.9165C44.5 44.6901 44.8073 45.4319 45.3543 45.9789C45.9013 46.5259 46.6431 46.8332 47.4167 46.8332H50.3333C51.1069 46.8332 51.8488 46.5259 52.3957 45.9789C52.9427 45.4319 53.25 44.6901 53.25 43.9165V20.5832L47.1833 3.08317Z" fill="#c25308"/>
</svg>
