<svg width="29" height="23" viewBox="0 0 29 23" fill="none" xmlns="http://www.w3.org/2000/svg">
<path d="M11.7822 1.98568C11.7822 1.62519 11.9254 1.27947 12.1803 1.02457C12.4352 0.769667 12.7809 0.626465 13.1414 0.626465H16.6944C17.5245 0.6265 18.3348 0.879896 19.0171 1.35279C19.6994 1.82568 20.221 2.49554 20.5124 3.27285L23.6304 11.5872C24.9279 11.8239 26.0951 12.5241 26.9147 13.5573C27.7344 14.5906 28.1506 15.8865 28.0859 17.2038C28.0212 18.5211 27.48 19.77 26.563 20.7179C25.6461 21.6659 24.4159 22.2483 23.1015 22.3568C21.7871 22.4653 20.4781 22.0924 19.4181 21.3076C18.3582 20.5228 17.6196 19.3795 17.3398 18.0906C17.06 16.8018 17.2581 15.4552 17.8973 14.3015C18.5365 13.1479 19.5731 12.2658 20.8142 11.8196L20.1848 10.141L10.7084 13.6939C11.4384 14.6761 11.8156 15.8759 11.7792 17.0991C11.7427 18.3223 11.2946 19.4975 10.5073 20.4344C9.72012 21.3714 8.63981 22.0153 7.44119 22.2621C6.24257 22.5089 4.99574 22.3442 3.9024 21.7944C2.80906 21.2447 1.93316 20.3422 1.4164 19.2329C0.899631 18.1236 0.772226 16.8723 1.05479 15.6817C1.33736 14.491 2.01336 13.4304 2.97346 12.6716C3.93355 11.9128 5.12157 11.5 6.34534 11.5002H6.37524L4.86516 8.78174H3.62691C3.26643 8.78174 2.92071 8.63854 2.66581 8.38363C2.4109 8.12873 2.2677 7.78301 2.2677 7.42253C2.2677 7.06204 2.4109 6.71632 2.66581 6.46142C2.92071 6.20652 3.26643 6.06331 3.62691 6.06331H9.06376C9.42425 6.06331 9.76997 6.20652 10.0249 6.46142C10.2798 6.71632 10.423 7.06204 10.423 7.42253C10.423 7.78301 10.2798 8.12873 10.0249 8.38363C9.76997 8.63854 9.42425 8.78174 9.06376 8.78174H7.97639L9.37094 11.2922L19.2307 7.59515L17.9666 4.22702C17.8695 3.96799 17.6957 3.74475 17.4684 3.58713C17.241 3.4295 16.971 3.34499 16.6944 3.34489H13.1414C12.7809 3.34489 12.4352 3.20169 12.1803 2.94678C11.9254 2.69188 11.7822 2.34616 11.7822 1.98568Z" fill="#C25308"/>
</svg>
