<svg width="29" height="29" viewBox="0 0 29 29" fill="none" xmlns="http://www.w3.org/2000/svg">
<path d="M1.87963 5.4375L3.28935 1.35938H13.6273L15.037 5.4375M13.6273 9.96875C13.2534 9.96875 12.8949 9.82553 12.6305 9.5706C12.3661 9.31567 12.2176 8.9699 12.2176 8.60938C12.2176 8.24885 12.3661 7.90308 12.6305 7.64815C12.8949 7.39322 13.2534 7.25 13.6273 7.25C14.0012 7.25 14.3598 7.39322 14.6241 7.64815C14.8885 7.90308 15.037 8.24885 15.037 8.60938C15.037 8.9699 14.8885 9.31567 14.6241 9.5706C14.3598 9.82553 14.0012 9.96875 13.6273 9.96875ZM3.28935 9.96875C2.91547 9.96875 2.5569 9.82553 2.29253 9.5706C2.02815 9.31567 1.87963 8.9699 1.87963 8.60938C1.87963 8.24885 2.02815 7.90308 2.29253 7.64815C2.5569 7.39322 2.91547 7.25 3.28935 7.25C3.66323 7.25 4.0218 7.39322 4.28618 7.64815C4.55055 7.90308 4.69907 8.24885 4.69907 8.60938C4.69907 8.9699 4.55055 9.31567 4.28618 9.5706C4.0218 9.82553 3.66323 9.96875 3.28935 9.96875ZM14.9619 0.90625C14.7739 0.380625 14.2476 0 13.6273 0H3.28935C2.66907 0 2.14278 0.380625 1.95481 0.90625L0 6.34375V13.5938C0 13.8341 0.0990159 14.0646 0.275265 14.2346C0.451515 14.4045 0.69056 14.5 0.939815 14.5H1.87963C2.12888 14.5 2.36793 14.4045 2.54418 14.2346C2.72043 14.0646 2.81944 13.8341 2.81944 13.5938V12.6875H14.0972V13.5938C14.0972 13.8341 14.1962 14.0646 14.3725 14.2346C14.5487 14.4045 14.7878 14.5 15.037 14.5H15.9769C16.2261 14.5 16.4652 14.4045 16.6414 14.2346C16.8176 14.0646 16.9167 13.8341 16.9167 13.5938V6.34375L14.9619 0.90625Z" fill="#C25308"/>
<path fill-rule="evenodd" clip-rule="evenodd" d="M23.5626 10.6738C24.7464 10.6738 25.7535 11.4304 26.1267 12.4863H27.1876C27.6882 12.4863 28.0939 12.8921 28.0939 13.3926C28.0939 13.8931 27.6882 14.2988 27.1876 14.2988H26.1267C25.7535 15.3548 24.7464 16.1113 23.5626 16.1113C22.3789 16.1113 21.3718 15.3548 20.9986 14.2988H19.9376C19.4371 14.2988 19.0314 13.8931 19.0314 13.3926C19.0314 12.8921 19.4371 12.4863 19.9376 12.4863H20.9986C21.3718 11.4304 22.3789 10.6738 23.5626 10.6738ZM23.5626 14.2988C24.0632 14.2988 24.4689 13.8931 24.4689 13.3926C24.4689 12.8921 24.0632 12.4863 23.5626 12.4863C23.0621 12.4863 22.6564 12.8921 22.6564 13.3926C22.6564 13.8931 23.0621 14.2988 23.5626 14.2988Z" fill="#C25308"/>
<path d="M23.5625 17.0174C22.2476 17.0174 21.0962 16.3173 20.4607 15.2695C19.049 16.2517 18.125 17.886 18.125 19.7362V25.1737C18.125 25.6742 18.5307 26.0799 19.0313 26.0799H20.8438V23.3612C20.8438 21.8596 22.0609 20.6424 23.5625 20.6424C25.0641 20.6424 26.2813 21.8597 26.2813 23.3612V26.0799H28.0938C28.5943 26.0799 29 25.6742 29 25.1737V19.7362C29 17.886 28.076 16.2517 26.6642 15.2695C26.0288 16.3173 24.8774 17.0174 23.5625 17.0174Z" fill="#C25308"/>
<path d="M23.5625 21.5488C24.5635 21.5488 25.375 22.3603 25.375 23.3613V26.9863C25.375 27.9874 24.5635 28.7988 23.5625 28.7988C22.5615 28.7988 21.75 27.9874 21.75 26.9863V23.3613C21.75 22.3603 22.5615 21.5488 23.5625 21.5488Z" fill="#C25308"/>
</svg>
