<svg width="32" height="32" viewBox="0 0 32 32" fill="none" xmlns="http://www.w3.org/2000/svg">
<g id="icon/maps">
<path id="Vector" d="M16 16C14.7625 16 13.75 15.01 13.75 13.8C13.75 12.59 14.7625 11.6 16 11.6C17.2375 11.6 18.25 12.59 18.25 13.8C18.25 15.01 17.2375 16 16 16ZM22.75 14.02C22.75 10.027 19.7688 7.2 16 7.2C12.2313 7.2 9.25 10.027 9.25 14.02C9.25 16.594 11.4437 20.004 16 24.074C20.5563 20.004 22.75 16.594 22.75 14.02ZM16 5C20.725 5 25 8.542 25 14.02C25 17.672 21.9963 21.995 16 27C10.0038 21.995 7 17.672 7 14.02C7 8.542 11.275 5 16 5Z" fill="#e55d19"/>
</g>
</svg>
