<svg width="32" height="32" viewBox="0 0 32 32" fill="none" xmlns="http://www.w3.org/2000/svg">
<g id="icon/mail">
<path id="Vector" d="M5.33332 26.6668C4.59999 26.6668 3.97243 26.4059 3.45066 25.8842C2.92888 25.3624 2.66755 24.7344 2.66666 24.0002V8.00016C2.66666 7.26683 2.92799 6.63927 3.45066 6.1175C3.97332 5.59572 4.60088 5.33438 5.33332 5.3335H26.6667C27.4 5.3335 28.028 5.59483 28.5507 6.1175C29.0733 6.64016 29.3342 7.26772 29.3333 8.00016V24.0002C29.3333 24.7335 29.0724 25.3615 28.5507 25.8842C28.0289 26.4068 27.4009 26.6677 26.6667 26.6668H5.33332ZM16 17.3335L5.33332 10.6668V24.0002H26.6667V10.6668L16 17.3335ZM16 14.6668L26.6667 8.00016H5.33332L16 14.6668ZM5.33332 10.6668V8.00016V24.0002V10.6668Z" fill="#BB3900"/>
</g>
</svg>
