<svg width="48" height="56" viewBox="0 0 48 56" fill="none" xmlns="http://www.w3.org/2000/svg">
<path id="Vector" d="M0.666659 39.6668V11.9584C0.666659 9.38205 1.33555 7.32774 2.67333 5.79552C4.0111 4.2633 5.77277 3.09663 7.95833 2.29552C10.1439 1.49441 12.6357 0.959686 15.4337 0.691353C18.2318 0.423019 21.0872 0.289825 24 0.291769C27.2083 0.291769 30.2349 0.425936 33.0796 0.694269C35.9243 0.962602 38.4035 1.49732 40.5171 2.29844C42.6307 3.09955 44.2951 4.26621 45.5104 5.79844C46.7257 7.33066 47.3333 9.38399 47.3333 11.9584V39.6668C47.3333 42.5348 46.3494 44.9537 44.3817 46.9234C42.4139 48.8932 39.995 49.877 37.125 49.8751L38.5833 51.3334C39.4097 52.1598 39.6042 53.0961 39.1667 54.1422C38.7292 55.1883 37.9271 55.7104 36.7604 55.7084C36.4201 55.7084 36.0925 55.6482 35.7775 55.5276C35.4625 55.407 35.1825 55.2243 34.9375 54.9793L29.8333 49.8751H18.1667L13.0625 54.9793C12.8194 55.2223 12.5394 55.4051 12.2225 55.5276C11.9055 55.6501 11.5789 55.7104 11.2425 55.7084C10.1244 55.7084 9.33499 55.1864 8.87416 54.1422C8.41333 53.098 8.59416 52.1618 9.41666 51.3334L10.875 49.8751C8.00694 49.8751 5.58805 48.8912 3.61833 46.9234C1.6486 44.9557 0.664715 42.5368 0.666659 39.6668ZM6.49999 23.6251H21.0833V14.8751H6.49999V23.6251ZM26.9167 23.6251H41.5V14.8751H26.9167V23.6251ZM13.7917 41.1251C15.0555 41.1251 16.1007 40.7119 16.9271 39.8855C17.7535 39.0591 18.1667 38.014 18.1667 36.7501C18.1667 35.4862 17.7535 34.4411 16.9271 33.6147C16.1007 32.7883 15.0555 32.3751 13.7917 32.3751C12.5278 32.3751 11.4826 32.7883 10.6562 33.6147C9.82985 34.4411 9.41666 35.4862 9.41666 36.7501C9.41666 38.014 9.82985 39.0591 10.6562 39.8855C11.4826 40.7119 12.5278 41.1251 13.7917 41.1251ZM34.2083 41.1251C35.4722 41.1251 36.5174 40.7119 37.3437 39.8855C38.1701 39.0591 38.5833 38.014 38.5833 36.7501C38.5833 35.4862 38.1701 34.4411 37.3437 33.6147C36.5174 32.7883 35.4722 32.3751 34.2083 32.3751C32.9444 32.3751 31.8993 32.7883 31.0729 33.6147C30.2465 34.4411 29.8333 35.4862 29.8333 36.7501C29.8333 38.014 30.2465 39.0591 31.0729 39.8855C31.8993 40.7119 32.9444 41.1251 34.2083 41.1251Z" fill="#c25308"/>
</svg>
