<svg width="40" height="49" viewBox="0 0 40 49" fill="none" xmlns="http://www.w3.org/2000/svg">
<rect y="49" width="49" height="40" rx="20" transform="rotate(-90 0 49)" fill="#FAD9CB"/>
<path d="M24.9862 24.495C24.9862 24.095 24.8262 23.715 24.5462 23.435L17.5662 16.495C17.2862 16.195 16.9062 16.055 16.5262 16.055C16.1262 16.055 15.7462 16.195 15.4462 16.495C14.8662 17.095 14.8662 18.035 15.4662 18.615L21.3662 24.495L15.4662 30.375C14.8662 30.955 14.8662 31.915 15.4462 32.495C16.0462 33.095 16.9862 33.095 17.5662 32.495L24.5462 25.555C24.8262 25.275 24.9862 24.895 24.9862 24.495Z" fill="#EF8C5C"/>
</svg>
