<svg width="50" height="50" viewBox="0 0 50 50" fill="none" xmlns="http://www.w3.org/2000/svg">
<rect width="50" height="50" rx="2" transform="matrix(4.36505e-08 -1 -1 -4.37723e-08 50 50)" fill="#2C2C2C" fill-opacity="0.8"/>
<path d="M29.9862 25.005C29.9862 25.405 29.8262 25.785 29.5462 26.065L22.5662 33.005C22.2862 33.305 21.9062 33.445 21.5262 33.445C21.1262 33.445 20.7462 33.305 20.4462 33.005C19.8662 32.405 19.8662 31.465 20.4662 30.885L26.3662 25.005L20.4662 19.125C19.8662 18.545 19.8662 17.585 20.4462 17.005C21.0462 16.405 21.9862 16.405 22.5662 17.005L29.5462 23.945C29.8262 24.225 29.9862 24.605 29.9862 25.005Z" fill="#D1D1D1"/>
</svg>
