<svg width="40" height="49" viewBox="0 0 40 49" fill="none" xmlns="http://www.w3.org/2000/svg">
<rect y="49" width="49" height="40" rx="20" transform="rotate(-90 0 49)" fill="#FAD9CB"/>
<path d="M15.0138 24.505C15.0138 24.905 15.1738 25.285 15.4538 25.565L22.4338 32.505C22.7138 32.805 23.0938 32.945 23.4738 32.945C23.8738 32.945 24.2538 32.805 24.5538 32.505C25.1338 31.905 25.1338 30.965 24.5338 30.385L18.6338 24.505L24.5338 18.625C25.1338 18.045 25.1338 17.085 24.5538 16.505C23.9538 15.905 23.0138 15.905 22.4338 16.505L15.4538 23.445C15.1738 23.725 15.0138 24.105 15.0138 24.505Z" fill="#EF8C5C"/>
</svg>
