<svg width="50" height="50" viewBox="0 0 50 50" fill="none" xmlns="http://www.w3.org/2000/svg">
<rect y="50" width="50" height="50" rx="2" transform="rotate(-90 0 50)" fill="#2C2C2C" fill-opacity="0.8"/>
<path d="M20.0138 25.005C20.0138 25.405 20.1738 25.785 20.4538 26.065L27.4338 33.005C27.7138 33.305 28.0938 33.445 28.4738 33.445C28.8738 33.445 29.2538 33.305 29.5538 33.005C30.1338 32.405 30.1338 31.465 29.5338 30.885L23.6338 25.005L29.5338 19.125C30.1338 18.545 30.1338 17.585 29.5538 17.005C28.9538 16.405 28.0138 16.405 27.4338 17.005L20.4538 23.945C20.1738 24.225 20.0138 24.605 20.0138 25.005Z" fill="#D1D1D1"/>
</svg>
