<svg width="50" height="50" viewBox="0 0 50 50" fill="none" xmlns="http://www.w3.org/2000/svg">
<path d="M33.942 11.976C33.7485 11.976 33.5443 11.942 33.3634 11.8506C32.636 11.5316 32.3084 10.683 32.6253 9.9429C33.2166 8.62644 33.0337 8.35634 32.6934 7.87783C32.251 7.23131 31.4895 6.14242 32.3297 4.22414C32.6487 3.49682 33.4995 3.16928 34.2249 3.48615C34.9502 3.80516 35.2906 4.6537 34.9737 5.38108C34.7801 5.82344 34.7801 5.82344 35.0651 6.23177C35.7671 7.24198 36.4159 8.53503 35.2587 11.1211C35.0205 11.6571 34.4972 11.976 33.942 11.976ZM12.3243 49.4979C12.2116 49.4979 12.0755 49.4872 11.95 49.4511C11.1906 49.2469 10.7354 48.4515 10.9396 47.6795L13.424 38.4431C7.88499 35.0063 4.6624 29.4239 4.69889 23.3882L1.94003 23.3903C1.14452 23.3903 0.5 22.7438 0.5 21.9505C0.5 21.1573 1.14664 20.5108 1.94003 20.5108H4.99245C6.41125 15.9383 14.5344 12.6485 24.9977 12.6485C35.4714 12.6485 43.597 15.9385 45.0161 20.5108H48.0578C48.864 20.5108 49.5 21.1573 49.5 21.9505C49.5 22.7438 48.864 23.3903 48.0578 23.3903H45.3117C45.333 29.426 42.1104 35.0109 36.5844 38.4452L39.0604 47.6817C39.2646 48.4537 38.8115 49.249 38.0394 49.4532C37.9139 49.4872 37.7884 49.5 37.665 49.5C37.029 49.5 36.4504 49.081 36.2802 48.4324L33.9765 39.8319C31.5814 40.8995 29.0289 41.512 26.4401 41.68V47.7728C26.4401 48.5661 25.8041 49.2126 24.998 49.2126C24.2046 49.2126 23.5579 48.5661 23.5579 47.7728L23.5601 41.68C20.9841 41.5098 18.4295 40.8973 16.0367 39.8319L13.7224 48.4324C13.5501 49.0789 12.9715 49.4979 12.3249 49.4979L12.3243 49.4979ZM35.9503 26.0466C35.6546 26.0466 35.3483 25.9573 35.0867 25.7531C34.4507 25.2767 34.3273 24.3686 34.8038 23.7327L37.8222 19.7515C38.2986 19.1284 39.2069 19.0029 39.8429 19.4793C40.4789 19.9557 40.6023 20.8638 40.1258 21.4997L37.1074 25.483C36.8245 25.8531 36.3927 26.0466 35.9503 26.0466ZM28.5053 27.2142C28.2097 27.2142 27.9033 27.1248 27.6418 26.9185C27.0057 26.4443 26.8824 25.5361 27.3588 24.9003L32.6468 17.9227C33.1233 17.2996 34.0316 17.1741 34.6675 17.6505C35.3036 18.1269 35.4269 19.035 34.9505 19.6709L29.6625 26.6484C29.3796 27.0227 28.9499 27.2142 28.5053 27.2142ZM21.924 27.2354C21.6305 27.2354 21.322 27.1461 21.0626 26.9419C20.4265 26.4655 20.3032 25.5574 20.7797 24.9216L26.6122 17.227C27.0887 16.5932 27.997 16.4677 28.633 16.9441C29.2689 17.4205 29.3944 18.3265 28.9159 18.9645L23.0833 26.6672C22.7983 27.0437 22.3665 27.2354 21.924 27.2354ZM15.9216 26.5102C15.6259 26.5102 15.3196 26.4209 15.058 26.2167C14.422 25.7404 14.2986 24.8322 14.7751 24.1964L20.0057 17.2869C20.4821 16.6637 21.3904 16.5361 22.0264 17.0146C22.6624 17.4889 22.7858 18.397 22.3093 19.035L17.0766 25.9445C16.7958 26.3188 16.364 26.5102 15.9216 26.5102ZM10.8271 24.5707C10.5315 24.5707 10.2251 24.4813 9.96355 24.275C9.32753 23.7986 9.20419 22.8905 9.68065 22.2547L12.4842 18.5563C12.9606 17.9332 13.8689 17.797 14.5049 18.2841C15.1388 18.7604 15.2642 19.6664 14.7878 20.3044L11.9843 24.0049C11.6992 24.3771 11.2675 24.5707 10.8271 24.5707ZM24.9999 15.528C15.0707 15.528 7.6492 18.9202 7.6492 21.9508C7.6492 24.992 15.0707 28.3839 24.9999 28.3839C34.929 28.3839 42.3505 24.9918 42.3505 21.9508C42.3505 16.9466 28.3009 15.528 24.9999 15.528ZM16.0471 12.0678C15.5026 12.0678 14.9686 11.7488 14.7304 11.2171C13.5839 8.61829 14.2305 7.32524 14.9346 6.31503C15.2175 5.9067 15.2175 5.9067 15.0261 5.46434C14.7091 4.73702 15.0367 3.88845 15.7642 3.56941C16.4895 3.2504 17.3404 3.58004 17.6701 4.3074C18.5103 6.22356 17.7615 7.31245 17.3063 7.9611C16.966 8.44811 16.7724 8.72032 17.3638 10.0495C17.6935 10.7747 17.3638 11.6254 16.6384 11.9444C16.4427 12.0338 16.2513 12.0678 16.0471 12.0678ZM25.215 9.35623C24.6811 9.35623 24.1705 9.06061 23.9217 8.53744C22.6157 5.82585 23.3431 4.47542 24.1365 3.42056C24.2386 3.29508 24.3875 3.10155 24.3981 3.0335C24.3981 3.0335 24.4088 2.89951 24.2514 2.56774C23.911 1.84042 24.2173 0.979061 24.9321 0.638785C25.6468 0.298509 26.5082 0.604757 26.8486 1.32995C27.8015 3.33758 26.9507 4.47323 26.4402 5.14317C26.0552 5.66634 25.8616 5.9258 26.5189 7.28691C26.8592 8.00149 26.5635 8.86279 25.8488 9.21374C25.6467 9.31157 25.4319 9.35623 25.215 9.35623Z" fill="#BB3900"/>
</svg>
