<svg width="70" height="32" viewBox="0 0 70 32" fill="none" xmlns="http://www.w3.org/2000/svg">
<path d="M69.9996 28.1226C66.3814 24.1945 63.1001 19.8856 60.189 15.3343C56.5238 17.6584 52.3313 19.0234 47.9864 19.2792C46.934 19.2792 46.8733 17.6529 47.9367 17.589C51.9802 17.336 55.8827 16.0711 59.2915 13.9054C56.8416 9.89387 54.6596 5.65985 52.8118 1.29509C41.836 2.24861 30.7244 1.98732 19.7705 0.5C20.5162 2.24306 21.3006 3.97501 22.1541 5.67081C28.5868 7.92265 35.5636 8.47307 42.2447 7.23317C42.706 7.14977 43.1341 7.45279 43.217 7.91706C43.2998 8.37298 42.9988 8.81221 42.5458 8.89562C36.1242 10.0799 29.4678 9.70459 23.2173 7.78084C27.5592 16.1517 33.0117 23.9247 39.4135 30.8245L39.9935 27.3022C40.1979 26.2125 41.8164 26.4877 41.6562 27.5802L41.0017 31.5C50.8236 31.3054 60.3848 30.191 69.9996 28.1226ZM39.3085 24.3807C38.839 24.364 38.4771 23.9748 38.4938 23.5105C38.5103 23.0463 38.9136 22.6737 39.3666 22.6988C39.4494 22.6988 47.6004 22.9851 51.7127 22.1845C52.7926 21.9704 53.1075 23.6329 52.0331 23.8413C49.4976 24.339 45.6474 24.4418 42.844 24.4418C40.8968 24.439 39.4438 24.389 39.3085 24.3807ZM18.5136 11.6928C20.8999 18.4593 23.6178 24.8839 26.8132 31.1559C21.5267 30.9947 15.6655 30.8251 10.4155 30.675C13.5172 24.6646 16.2516 18.1926 18.5136 11.6928ZM18.4114 1.64311C23.1841 12.5575 29.6998 22.699 37.7151 31.4783L28.7275 31.2087C26.7803 27.4584 24.9519 23.5218 23.2892 19.4936C21.8971 16.141 20.552 12.5492 19.2954 8.82406C19.0661 8.0679 17.9282 8.07623 17.71 8.82406C15.2407 16.3302 12.1556 23.7502 8.55413 30.6165C5.6982 30.5304 2.85338 30.447 0 30.3608C7.77494 21.9793 14.0085 12.1967 18.4114 1.64311Z" fill="#BB3900"/>
</svg>
