<svg width="38" height="50" viewBox="0 0 38 50" fill="none" xmlns="http://www.w3.org/2000/svg">
<path d="M25.547 20.5581C25.547 20.5581 28.0515 21.3754 31.0216 16.8877C33.9911 12.3988 38 4.08373 38 4.08373L37.7367 3.91896L30.0891 15.7666C29.9237 16.0328 29.5505 16.0991 29.2556 15.914C28.9613 15.7307 28.8562 15.3672 29.0228 15.1015L36.1248 2.91181L35.8878 2.76375L28.0556 14.4979C27.8915 14.7636 27.5183 14.8299 27.2222 14.646C26.9285 14.4621 26.8234 14.0973 26.9882 13.8323L34.0914 1.64317L33.8896 1.5172L26.0604 13.252C25.8951 13.5176 25.5208 13.5833 25.227 13.4C24.9321 13.2149 24.8264 12.8514 24.993 12.5863L32.2765 0.510647L32.0132 0.345276C32.0132 0.345276 26.304 7.60129 23.5769 12.24C20.8492 16.8794 22.6838 18.7707 22.6838 18.7707L22.8575 18.8787L4.42433 46.5178L4.42732 46.5208C3.9915 47.2969 4.79328 48.6348 5.68461 49.1918C6.57714 49.75 8.13114 49.8807 8.63681 49.1494L8.64039 49.1512L8.67323 49.0986C8.67442 49.0968 8.67502 49.095 8.67621 49.0938C8.67681 49.0927 8.67741 49.0915 8.678 49.0903L25.3721 20.4501L25.547 20.5581Z" fill="#BB3900"/>
<path d="M16.1209 27.2913L16.2493 27.2072L16.4206 27.4788L18.663 24.1147L12.3598 15.3208L12.3544 15.3244L2.29721 0.356201C-6.29491 0.566944 11.9824 27.2251 11.9824 27.2251L16.1209 27.2913Z" fill="#BB3900"/>
<path d="M34.4108 46.0873L21.5584 28.1538L19.291 32.0427L29.9512 48.9935C29.9512 48.9947 29.953 48.9959 29.9536 48.9977C29.9547 48.9989 29.9553 49.0001 29.9565 49.0019L29.9941 49.0574L29.9965 49.055C30.5643 49.821 32.2234 49.624 33.1577 48.9947C34.092 48.3661 34.9021 46.9064 34.4078 46.0921L34.4108 46.0873Z" fill="#BB3900"/>
</svg>
