<svg width="33" height="33" viewBox="0 0 33 33" fill="none" xmlns="http://www.w3.org/2000/svg">
<g id="uiw:facebook" clip-path="url(#clip0_352_255)">
<path id="Vector" fill-rule="evenodd" clip-rule="evenodd" d="M31.1784 0H1.8216C0.8151 0 0 0.8151 0 1.8216V31.1784C0 32.1849 0.8151 33 1.8216 33H17.6253V20.2208H13.3254V15.2411H17.6253V11.5665C17.6253 7.3029 20.229 4.983 24.0322 4.983C25.8538 4.983 27.418 5.1183 27.8751 5.17935V9.63435H25.2384C23.1693 9.63435 22.77 10.6178 22.77 12.0598V15.2394H27.7018L27.0583 20.2191H22.7683V33H31.1784C32.1849 33 33 32.1849 33 31.1784V1.8216C33 0.8151 32.1849 0 31.1784 0Z" fill="#BB3900"/>
</g>
<defs>
<clipPath id="clip0_352_255">
<rect width="33" height="33" fill="white"/>
</clipPath>
</defs>
</svg>
