<svg width="32" height="32" viewBox="0 0 32 32" fill="none" xmlns="http://www.w3.org/2000/svg">
<path d="M5.33335 26.6667C4.60002 26.6667 3.97246 26.4058 3.45069 25.884C2.92891 25.3623 2.66758 24.7343 2.66669 24V8.00004C2.66669 7.26671 2.92802 6.63915 3.45069 6.11737C3.97335 5.5956 4.60091 5.33426 5.33335 5.33337H26.6667C27.4 5.33337 28.028 5.59471 28.5507 6.11737C29.0734 6.64004 29.3342 7.2676 29.3334 8.00004V24C29.3334 24.7334 29.0725 25.3614 28.5507 25.884C28.0289 26.4067 27.4009 26.6676 26.6667 26.6667H5.33335ZM16 17.3334L5.33335 10.6667V24H26.6667V10.6667L16 17.3334ZM16 14.6667L26.6667 8.00004H5.33335L16 14.6667ZM5.33335 10.6667V8.00004V24V10.6667Z" fill="#D34600"/>
</svg>
