<svg width="32" height="32" viewBox="0 0 32 32" fill="none" xmlns="http://www.w3.org/2000/svg">
<g clip-path="url(#clip0_170_224)">
<path d="M16 1.33337C10.1028 1.33337 5.33331 5.92404 5.33331 11.6C5.33331 19.3 16 30.6667 16 30.6667C16 30.6667 26.6666 19.3 26.6666 11.6C26.6666 5.92404 21.8971 1.33337 16 1.33337ZM8.38093 11.6C8.38093 7.55204 11.7943 4.26671 16 4.26671C20.2057 4.26671 23.619 7.55204 23.619 11.6C23.619 15.824 19.2305 22.1454 16 26.0907C12.8305 22.1747 8.38093 15.78 8.38093 11.6Z" fill="#D34600"/>
<path d="M16 16C18.2091 16 20 14.2091 20 12C20 9.79086 18.2091 8 16 8C13.7909 8 12 9.79086 12 12C12 14.2091 13.7909 16 16 16Z" fill="#D34600"/>
</g>
<defs>
<clipPath id="clip0_170_224">
<rect width="32" height="32" fill="white"/>
</clipPath>
</defs>
</svg>
