<svg width="56" height="40" viewBox="0 0 56 40" fill="none" xmlns="http://www.w3.org/2000/svg">
<path d="M1.63374 18.4321H9.94898C10.7112 18.4321 11.3349 17.8085 11.3349 17.0463C11.3349 16.284 10.7112 15.6604 9.94898 15.6604H1.63374C0.871507 15.6604 0.247864 16.284 0.247864 17.0463C0.247864 17.8085 0.871507 18.4321 1.63374 18.4321Z" fill="#BB3900"/>
<path d="M44.5958 17.0463C44.5958 17.8085 45.2195 18.4321 45.9817 18.4321H54.2969C55.0592 18.4321 55.6828 17.8085 55.6828 17.0463C55.6828 16.284 55.0592 15.6604 54.2969 15.6604H45.9817C45.2195 15.6604 44.5958 16.284 44.5958 17.0463Z" fill="#BB3900"/>
<path d="M11.7506 4.57338H44.1108C45.3581 4.57338 46.3975 3.53398 46.3975 2.28669C46.3975 1.03941 45.3581 0 44.1108 0H11.7506C10.5033 0 9.46393 1.03941 9.46393 2.28669C9.46393 3.53398 10.5033 4.57338 11.7506 4.57338Z" fill="#BB3900"/>
<path d="M34.6868 5.54352L39.3988 18.4321H44.3187L39.6067 5.54352H34.6868Z" fill="#BB3900"/>
<path d="M46.6746 24.9457H41.7548L46.8825 39.0817C47.1597 39.7746 47.9219 40.1904 48.6149 39.9132L50.3472 39.2895C51.0401 39.0124 51.4559 38.2501 51.1787 37.5572L46.6746 24.9457Z" fill="#BB3900"/>
<path d="M16.5319 18.4321L21.1746 5.54352H16.324L11.612 18.4321H16.5319Z" fill="#BB3900"/>
<path d="M4.68264 37.4879C4.40547 38.1809 4.82123 39.0124 5.51417 39.2203L7.24651 39.8439C7.93945 40.1211 8.77097 39.7746 8.97886 39.0124L14.1066 24.8765H9.25603L4.68264 37.4879Z" fill="#BB3900"/>
<path d="M55.6828 20.7881C55.6828 20.0259 55.0592 19.3329 54.2277 19.3329H1.70303C0.940801 19.3329 0.247864 19.9566 0.247864 20.7881V22.5205C0.247864 23.2827 0.871507 23.9756 1.70303 23.9756H54.297C55.0592 23.9756 55.7521 23.352 55.7521 22.5205V20.7881H55.6828ZM12.7207 23.0055C11.9585 23.0055 11.3349 22.3819 11.3349 21.6196C11.3349 20.8574 11.9585 20.2338 12.7207 20.2338C13.483 20.2338 14.1066 20.8574 14.1066 21.6196C14.1066 22.3819 13.483 23.0055 12.7207 23.0055ZM43.0714 23.0055C42.3091 23.0055 41.6855 22.3819 41.6855 21.6196C41.6855 20.8574 42.3091 20.2338 43.0714 20.2338C43.8336 20.2338 44.4573 20.8574 44.4573 21.6196C44.4573 22.3819 43.8336 23.0055 43.0714 23.0055Z" fill="#BB3900"/>
</svg>
