<svg width="32" height="32" viewBox="0 0 32 32" fill="none" xmlns="http://www.w3.org/2000/svg">
<path d="M13.3333 26.6667H18.6667V25.3334H13.3333V26.6667ZM9.33332 30.6667C8.59999 30.6667 7.97243 30.4058 7.45066 29.884C6.92888 29.3623 6.66755 28.7343 6.66666 28V4.00004C6.66666 3.26671 6.92799 2.63915 7.45066 2.11737C7.97332 1.5956 8.60088 1.33426 9.33332 1.33337H22.6667C23.4 1.33337 24.028 1.59471 24.5507 2.11737C25.0733 2.64004 25.3342 3.2676 25.3333 4.00004V28C25.3333 28.7334 25.0724 29.3614 24.5507 29.884C24.0289 30.4067 23.4009 30.6676 22.6667 30.6667H9.33332ZM9.33332 24V28H22.6667V24H9.33332ZM9.33332 21.3334H22.6667V8.00004H9.33332V21.3334ZM9.33332 5.33337H22.6667V4.00004H9.33332V5.33337Z" fill="#D34600"/>
</svg>
