<svg width="48" height="48" viewBox="0 0 48 48" fill="none" xmlns="http://www.w3.org/2000/svg">
<circle cx="24" cy="24" r="24" fill="#25D366"/>
<path d="M34.0653 14.0956C32.8212 12.8456 31.3396 11.8545 29.7067 11.1801C28.0738 10.5056 26.3223 10.1612 24.5543 10.1671C17.1462 10.1671 11.1085 16.1745 11.1085 23.5455C11.1085 25.908 11.7327 28.203 12.8995 30.228L11 37.167L18.1231 35.304C20.0905 36.3705 22.302 36.9375 24.5543 36.9375C31.9623 36.9375 38 30.93 38 23.559C38 19.9815 36.6025 16.62 34.0653 14.0956ZM24.5543 34.6695C22.5462 34.6695 20.5789 34.1295 18.8558 33.117L18.4487 32.874L14.2156 33.981L15.3417 29.877L15.0704 29.4585C13.9545 27.686 13.3621 25.637 13.3608 23.5455C13.3608 17.4165 18.3809 12.4216 24.5407 12.4216C27.5256 12.4216 30.3342 13.5826 32.4372 15.6886C33.4787 16.7198 34.304 17.9465 34.8653 19.2975C35.4266 20.6486 35.7127 22.0971 35.707 23.559C35.7342 29.688 30.7141 34.6695 24.5543 34.6695ZM30.6869 26.3535C30.3477 26.1915 28.6925 25.3815 28.394 25.26C28.0819 25.152 27.8648 25.098 27.6342 25.422C27.4035 25.7595 26.7658 26.5155 26.5759 26.7315C26.3859 26.961 26.1824 26.988 25.8432 26.8125C25.504 26.6505 24.4186 26.286 23.1432 25.152C22.1392 24.261 21.4744 23.1675 21.2709 22.83C21.0809 22.4925 21.2437 22.317 21.4201 22.1415C21.5693 21.993 21.7593 21.75 21.9221 21.561C22.0849 21.372 22.1528 21.2235 22.2613 21.0075C22.3698 20.778 22.3156 20.589 22.2342 20.427C22.1528 20.265 21.4744 18.618 21.203 17.943C20.9317 17.295 20.6467 17.376 20.4432 17.3625H19.792C19.5613 17.3625 19.2085 17.4435 18.8965 17.781C18.598 18.1185 17.7296 18.9285 17.7296 20.5755C17.7296 22.2225 18.9372 23.8155 19.1 24.0315C19.2628 24.261 21.4744 27.636 24.8392 29.0805C25.6397 29.4315 26.2638 29.634 26.7523 29.7825C27.5528 30.039 28.2854 29.9985 28.8688 29.9175C29.5201 29.823 30.8633 29.1075 31.1347 28.3245C31.4196 27.5415 31.4196 26.88 31.3246 26.7315C31.2296 26.583 31.0261 26.5155 30.6869 26.3535Z" fill="#FCFAF6"/>
</svg>
