<svg xmlns="http://www.w3.org/2000/svg" width="40" height="56" viewBox="0 0 40 56" fill="none">
  <path d="M39.8019 25.083C39.8019 26.0725 39.0001 26.8743 38.0105 26.8743H1.79131C0.801754 26.8743 0 26.0725 0 25.083C0 24.0934 0.801754 23.2917 1.79131 23.2917H38.0105C39.0001 23.2917 39.8019 24.0934 39.8019 25.083Z" fill="#F5B498"/>
  <path d="M23.7314 8.38642V0.60495H16.0706V8.38642C9.30355 9.88735 4.00201 15.2809 2.63458 22.0977H37.1696C35.8007 15.2809 30.4991 9.88735 23.7314 8.38642Z" fill="#F5B498"/>
  <path d="M5.7963 33.6782C5.7963 34.1323 5.42899 34.4996 4.97569 34.4996C4.5224 34.4996 4.15433 34.1323 4.15433 33.6782V29.9478C4.15433 29.4937 4.5224 29.1264 4.97569 29.1264C5.42899 29.1264 5.7963 29.4937 5.7963 29.9478V33.6782Z" fill="#F5B498"/>
  <path d="M5.7963 40.6436C5.7963 41.0977 5.42899 41.4643 4.97569 41.4643C4.5224 41.4643 4.15433 41.0977 4.15433 40.6436V36.9132C4.15433 36.4591 4.5224 36.0918 4.97569 36.0918C5.42899 36.0918 5.7963 36.4591 5.7963 36.9132V40.6436Z" fill="#F5B498"/>
  <path d="M5.7963 47.609C5.7963 48.0631 5.42899 48.4304 4.97569 48.4304C4.5224 48.4304 4.15433 48.0631 4.15433 47.609V43.8786C4.15433 43.4245 4.5224 43.058 4.97569 43.058C5.42899 43.058 5.7963 43.4245 5.7963 43.8786V47.609Z" fill="#F5B498"/>
  <path d="M5.7963 54.5744C5.7963 55.0285 5.42899 55.395 4.97569 55.395C4.5224 55.395 4.15433 55.0285 4.15433 54.5744V50.844C4.15433 50.3899 4.5224 50.0219 4.97569 50.0219C5.42899 50.0219 5.7963 50.3899 5.7963 50.844V54.5744Z" fill="#F5B498"/>
  <path d="M10.7721 33.6782C10.7721 34.1323 10.4048 34.4996 9.95151 34.4996C9.49746 34.4996 9.13091 34.1323 9.13091 33.6782V29.9478C9.13091 29.4937 9.49822 29.1264 9.95151 29.1264C10.4048 29.1264 10.7721 29.4937 10.7721 29.9478V33.6782Z" fill="#F5B498"/>
  <path d="M10.7721 40.6436C10.7721 41.0977 10.4048 41.4643 9.95151 41.4643C9.49746 41.4643 9.13091 41.0977 9.13091 40.6436V36.9132C9.13091 36.4591 9.49822 36.0918 9.95151 36.0918C10.4048 36.0918 10.7721 36.4591 10.7721 36.9132V40.6436Z" fill="#F5B498"/>
  <path d="M10.7721 47.609C10.7721 48.0631 10.4048 48.4304 9.95151 48.4304C9.49746 48.4304 9.13091 48.0631 9.13091 47.609V43.8786C9.13091 43.4245 9.49822 43.058 9.95151 43.058C10.4048 43.058 10.7721 43.4245 10.7721 43.8786V47.609Z" fill="#F5B498"/>
  <path d="M15.7469 33.6782C15.7469 34.1323 15.3796 34.4996 14.9263 34.4996C14.4723 34.4996 14.1057 34.1323 14.1057 33.6782V29.9478C14.1057 29.4937 14.473 29.1264 14.9263 29.1264C15.3796 29.1264 15.7469 29.4937 15.7469 29.9478V33.6782Z" fill="#F5B498"/>
  <path d="M15.7469 40.6436C15.7469 41.0977 15.3796 41.4643 14.9263 41.4643C14.4723 41.4643 14.1057 41.0977 14.1057 40.6436V36.9132C14.1057 36.4591 14.473 36.0918 14.9263 36.0918C15.3796 36.0918 15.7469 36.4591 15.7469 36.9132V40.6436Z" fill="#F5B498"/>
  <path d="M15.7469 47.609C15.7469 48.0631 15.3796 48.4304 14.9263 48.4304C14.4723 48.4304 14.1057 48.0631 14.1057 47.609V43.8786C14.1057 43.4245 14.473 43.058 14.9263 43.058C15.3796 43.058 15.7469 43.4245 15.7469 43.8786V47.609Z" fill="#F5B498"/>
  <path d="M15.7469 54.5744C15.7469 55.0285 15.3796 55.395 14.9263 55.395C14.4723 55.395 14.1057 55.0285 14.1057 54.5744V50.844C14.1057 50.3899 14.473 50.0219 14.9263 50.0219C15.3796 50.0219 15.7469 50.3899 15.7469 50.844V54.5744Z" fill="#F5B498"/>
  <path d="M20.7219 33.6782C20.7219 34.1323 20.3546 34.4996 19.9013 34.4996C19.4473 34.4996 19.08 34.1323 19.08 33.6782V29.9478C19.08 29.4937 19.4473 29.1264 19.9013 29.1264C20.3546 29.1264 20.7212 29.4937 20.7212 29.9478L20.7219 33.6782Z" fill="#F5B498"/>
  <path d="M20.722 40.6436C20.722 41.0977 20.3546 41.4643 19.9021 41.4643C19.448 41.4643 19.0807 41.0977 19.0807 40.6436V36.9132C19.0807 36.4591 19.448 36.0918 19.9021 36.0918C20.3554 36.0918 20.722 36.4591 20.722 36.9132V40.6436Z" fill="#F5B498"/>
  <path d="M20.722 47.609C20.722 48.0631 20.3546 48.4304 19.9021 48.4304C19.448 48.4304 19.0807 48.0631 19.0807 47.609V43.8786C19.0807 43.4245 19.448 43.058 19.9021 43.058C20.3554 43.058 20.722 43.4245 20.722 43.8786V47.609Z" fill="#F5B498"/>
  <path d="M25.6984 33.6782C25.6984 34.1323 25.3303 34.4996 24.8762 34.4996C24.4222 34.4996 24.0556 34.1323 24.0556 33.6782V29.9478C24.0556 29.4937 24.4222 29.1264 24.8762 29.1264C25.3303 29.1264 25.6984 29.4937 25.6984 29.9478V33.6782Z" fill="#F5B498"/>
  <path d="M25.6984 40.6436C25.6984 41.0977 25.3303 41.4643 24.8762 41.4643C24.4222 41.4643 24.0556 41.0977 24.0556 40.6436V36.9132C24.0556 36.4591 24.4222 36.0918 24.8762 36.0918C25.3303 36.0918 25.6984 36.4591 25.6984 36.9132V40.6436Z" fill="#F5B498"/>
  <path d="M25.6984 47.609C25.6984 48.0631 25.3303 48.4304 24.8762 48.4304C24.4222 48.4304 24.0556 48.0631 24.0556 47.609V43.8786C24.0556 43.4245 24.4222 43.058 24.8762 43.058C25.3303 43.058 25.6984 43.4245 25.6984 43.8786V47.609Z" fill="#F5B498"/>
  <path d="M25.6984 54.5744C25.6984 55.0285 25.3303 55.395 24.8762 55.395C24.4222 55.395 24.0556 55.0285 24.0556 54.5744V50.844C24.0556 50.3899 24.4222 50.0219 24.8762 50.0219C25.3303 50.0219 25.6984 50.3899 25.6984 50.844V54.5744Z" fill="#F5B498"/>
  <path d="M30.6726 33.6782C30.6726 34.1323 30.306 34.4996 29.8505 34.4996C29.3979 34.4996 29.0299 34.1323 29.0299 33.6782V29.9478C29.0299 29.4937 29.3979 29.1264 29.8505 29.1264C30.306 29.1264 30.6726 29.4937 30.6726 29.9478V33.6782Z" fill="#F5B498"/>
  <path d="M30.6726 40.6436C30.6726 41.0977 30.306 41.4643 29.8505 41.4643C29.3979 41.4643 29.0299 41.0977 29.0299 40.6436V36.9132C29.0299 36.4591 29.3979 36.0918 29.8505 36.0918C30.306 36.0918 30.6726 36.4591 30.6726 36.9132V40.6436Z" fill="#F5B498"/>
  <path d="M30.6726 47.609C30.6726 48.0631 30.306 48.4304 29.8505 48.4304C29.3979 48.4304 29.0299 48.0631 29.0299 47.609V43.8786C29.0299 43.4245 29.3979 43.058 29.8505 43.058C30.306 43.058 30.6726 43.4245 30.6726 43.8786V47.609Z" fill="#F5B498"/>
  <path d="M35.6476 33.6782C35.6476 34.1323 35.281 34.4996 34.827 34.4996C34.3729 34.4996 34.0064 34.1323 34.0064 33.6782V29.9478C34.0064 29.4937 34.3729 29.1264 34.827 29.1264C35.281 29.1264 35.6476 29.4937 35.6476 29.9478V33.6782Z" fill="#F5B498"/>
  <path d="M35.6476 40.6436C35.6476 41.0977 35.281 41.4643 34.827 41.4643C34.3729 41.4643 34.0064 41.0977 34.0064 40.6436V36.9132C34.0064 36.4591 34.3729 36.0918 34.827 36.0918C35.281 36.0918 35.6476 36.4591 35.6476 36.9132V40.6436Z" fill="#F5B498"/>
  <path d="M35.6476 47.609C35.6476 48.0631 35.281 48.4304 34.827 48.4304C34.3729 48.4304 34.0064 48.0631 34.0064 47.609V43.8786C34.0064 43.4245 34.3729 43.058 34.827 43.058C35.281 43.058 35.6476 43.4245 35.6476 43.8786V47.609Z" fill="#F5B498"/>
  <path d="M35.6476 54.5744C35.6476 55.0285 35.281 55.395 34.827 55.395C34.3729 55.395 34.0064 55.0285 34.0064 54.5744V50.844C34.0064 50.3899 34.3729 50.0219 34.827 50.0219C35.281 50.0219 35.6476 50.3899 35.6476 50.844V54.5744Z" fill="#F5B498"/>
</svg>