<svg xmlns="http://www.w3.org/2000/svg" width="56" height="50" viewBox="0 0 56 50" fill="none">
  <path d="M33.8457 0.5H22.1543V4.38689H33.8457V0.5Z" fill="#FAD9CB"/>
  <path d="M0.0762939 49.5H3.92951L6.50844 4.81864C6.52241 4.57625 6.72311 4.38678 6.96585 4.38678H17.6903V0.5H2.90438L0.0762939 49.5Z" fill="#FAD9CB"/>
  <path d="M36.5669 35.9131H36.536V7.86369C37.0357 7.67708 37.3933 7.19619 37.3933 6.63202V0.5H34.7621V6.63202C34.7621 7.19619 35.1196 7.67708 35.6195 7.86369V35.9131H34.8769C34.1779 35.9131 33.5559 36.3637 33.3289 37.034C32.8307 38.5061 31.476 40.9757 27.9999 40.9757C24.5238 40.9757 23.1691 38.506 22.6709 37.034C22.4441 36.3635 21.822 35.9131 21.123 35.9131H20.3803V7.86369C20.8802 7.67708 21.2378 7.19619 21.2378 6.63202V0.5H18.6066V6.63202C18.6066 7.19619 18.9641 7.67708 19.4639 7.86369V35.9132H19.433C18.9677 35.9132 18.5235 36.1127 18.2146 36.4603C17.9056 36.808 17.7598 37.2724 17.8146 37.7344C18.052 39.7407 18.4279 41.2163 18.9015 42.0017C19.8687 43.606 23.9503 44.9111 27.9998 44.9111C32.0494 44.9111 36.1309 43.6059 37.0982 42.0017C37.5717 41.2163 37.9476 39.7407 38.1851 37.7344C38.2398 37.2724 38.094 36.808 37.785 36.4603C37.4763 36.1125 37.0322 35.9131 36.5669 35.9131Z" fill="#FAD9CB"/>
  <path d="M53.0956 0.5H38.3097V4.38689H49.0341C49.277 4.38689 49.4776 4.57625 49.4915 4.81876L52.0763 49.5H55.9237L53.0956 0.5Z" fill="#FAD9CB"/>
</svg>