<svg xmlns="http://www.w3.org/2000/svg" width="46" height="56" viewBox="0 0 46 56" fill="none">
  <path d="M13.4992 39.4997C14.5812 39.4997 15.4935 38.5691 15.4935 37.4654V34.7343H31.6194V37.4654C31.6194 38.5691 32.5317 39.4997 33.6137 39.4997C34.6957 39.4997 35.608 38.5691 35.608 37.4654V7.24124C35.608 5.73069 36.7472 4.56858 38.228 4.56858C39.31 4.56858 40.2223 5.20698 40.6784 6.196C41.1346 7.24124 42.3311 7.70654 43.2985 7.24124C44.3232 6.77594 44.7793 5.55535 44.3232 4.56858C43.2412 2.06895 40.9032 0.5 38.2256 0.5C34.5787 0.5 31.6147 3.52334 31.6147 7.24365V12.009L15.4933 12.0068V7.24141C15.4933 5.73086 16.6325 4.56875 18.1133 4.56875C19.1953 4.56875 20.1076 5.20715 20.5638 6.19617C21.0199 7.24141 22.2165 7.70671 23.1838 7.24141C24.2085 6.77611 24.6646 5.55552 24.2085 4.56875C23.1265 2.06912 20.7885 0.500169 18.1109 0.500169C14.464 0.500169 11.5 3.52351 11.5 7.24382V37.468C11.5044 38.5694 12.4145 39.5 13.4987 39.5L13.4992 39.4997ZM15.4935 30.6637V25.3746H31.6194V30.6637H15.4935ZM31.6194 16.075V21.3057H15.4935V16.075H31.6194Z" fill="#FAD9CB"/>
  <path d="M9.31529 47.5C11.9055 47.5 14.3221 46.7425 16.1626 45.4011C18.0029 46.7425 20.4217 47.5 22.9518 47.5C25.5419 47.5 27.9585 46.7425 29.799 45.3425C31.6393 46.6839 34.0581 47.5 36.6463 47.5C40.042 47.5 43.2065 46.1586 45.0465 43.8862C45.7363 43.0114 45.6228 41.7286 44.8173 41.0298C43.9539 40.3309 42.6878 40.4459 41.998 41.262C40.9054 42.5448 38.8916 43.3609 36.7041 43.3609C34.5746 43.3609 32.5029 42.5447 31.4103 41.2034C31.3524 41.1448 31.3524 41.1448 31.2946 41.0861C31.2367 41.0275 31.2367 41.0275 31.1789 40.9689H31.121C31.0632 40.9103 31.0053 40.9103 30.9475 40.8517C30.8896 40.7931 30.8318 40.7931 30.7739 40.7345C30.716 40.7345 30.6582 40.6758 30.6003 40.6758C30.5425 40.6758 30.4846 40.6172 30.4268 40.6172C30.3689 40.6172 30.311 40.6172 30.2532 40.5586C30.1953 40.5586 30.0796 40.5 30.024 40.5H29.8504H29.6212C29.5634 40.5 29.5055 40.5 29.4477 40.5586C29.3898 40.5586 29.2741 40.5586 29.2185 40.6172C29.1606 40.6172 29.1027 40.6758 29.0449 40.6758C28.987 40.6758 28.9292 40.7345 28.8157 40.7931C28.7578 40.7931 28.7 40.8517 28.6421 40.9103C28.5843 40.9689 28.5264 40.9689 28.4686 41.0275H28.4107C28.3528 41.0861 28.3528 41.0861 28.295 41.1448C28.2371 41.2034 28.2371 41.2034 28.1793 41.262C27.0867 42.5448 25.0729 43.3608 22.8855 43.3608C20.9384 43.4195 18.9824 42.6597 17.832 41.4942C17.7162 41.3183 17.6028 41.2033 17.4292 41.0861C17.0843 40.7953 16.6815 40.6194 16.2788 40.6194H16.1052H15.9316C15.5289 40.6781 15.1261 40.7953 14.7812 41.0861C14.6076 41.2033 14.4941 41.3769 14.4363 41.5528C13.3437 42.7183 11.3855 43.4758 9.31604 43.4758C7.18649 43.4758 5.11481 42.6597 4.02221 41.3183C3.27453 40.4436 2.00835 40.3849 1.20286 41.0861C0.339483 41.8436 0.281605 43.1264 0.97366 43.9424C2.81394 46.1585 5.97822 47.5 9.3163 47.5L9.31529 47.5Z" fill="#FAD9CB"/>
  <path d="M41.9529 49.2685C40.8618 50.5621 38.8506 51.385 36.666 51.385C34.5392 51.385 32.4702 50.562 31.379 49.2093L31.1479 48.9729H31.0901C31.0324 48.9138 30.9746 48.8547 30.9168 48.8547C30.859 48.7955 30.8012 48.7955 30.7435 48.7364C30.6857 48.6773 30.6279 48.6773 30.5701 48.6773C30.5123 48.6773 30.4545 48.6182 30.3968 48.6182C30.339 48.6182 30.2812 48.6182 30.2234 48.5591C30.1656 48.5591 30.0501 48.5 29.9945 48.5H29.8212H29.5923C29.5345 48.5 29.4767 48.5 29.4189 48.5591C29.3612 48.5591 29.2456 48.5591 29.19 48.6182C29.1323 48.6182 29.0745 48.6773 29.0167 48.6773C28.9589 48.6773 28.9011 48.7364 28.7878 48.7955C28.73 48.7955 28.6722 48.8547 28.6722 48.9138C28.6145 48.9729 28.5567 48.9729 28.4989 49.032H28.4411L28.21 49.2684C27.1188 50.5621 25.1076 51.385 22.923 51.385C20.9118 51.385 18.9584 50.6211 17.8094 49.4458C17.6939 49.2684 17.5805 49.1525 17.4072 49.0343C17.0627 48.741 16.6605 48.5637 16.2583 48.5637H16.0849H15.9116C15.5093 48.6228 15.1071 48.741 14.7626 49.0343C14.5893 49.1525 14.476 49.3275 14.4182 49.5049C13.327 50.6802 11.3713 51.4441 9.30458 51.4441C7.1778 51.4441 5.10882 50.6211 4.01763 49.2684C3.27093 48.3863 2.00639 48.3272 1.20194 49.0342C0.339691 49.7981 0.281889 51.0917 0.973045 51.9147C2.86868 54.1495 5.97332 55.5 9.36231 55.5C11.9491 55.5 14.3626 54.7361 16.2007 53.3834C18.0386 54.7361 20.4543 55.5 22.9811 55.5C25.5679 55.5 27.9813 54.7361 29.8195 53.3243C31.6573 54.677 34.073 55.5 36.6578 55.5C40.0491 55.5 43.2095 54.1473 45.0471 51.8556C45.736 50.9735 45.6227 49.6799 44.8182 48.9752C43.9648 48.2704 42.6426 48.3863 41.9536 49.2684L41.9529 49.2685Z" fill="#FAD9CB"/>
</svg>