<svg xmlns="http://www.w3.org/2000/svg" width="50" height="44" viewBox="0 0 50 44" fill="none">
  <path fill-rule="evenodd" clip-rule="evenodd" d="M21.8587 44H28.1671V32.428H21.8587V44ZM35.1001 9.36818L35.8249 13.6159C36.6134 18.2357 43.8336 21.4167 48.1909 17.1646C49.1324 16.2454 49.7041 15.0824 49.4321 13.9024L46.7243 2.23461C46.4331 0.998987 45.0537 0.000656573 43.7401 0.000656573H34.4604L35.1001 9.36818ZM15.9415 17.6435C17.7757 20.3627 21.2721 22.2247 24.4029 22.4406C27.9163 22.6822 32.033 20.6641 34.0718 17.6627C36.431 21.0703 40.9243 23.0712 45.0562 22.2888V41.597C45.0562 42.9994 43.6683 43.9978 42.2231 43.9978L31.4323 43.9999V30.7861C31.4323 29.8797 30.7011 29.1442 29.8 29.1442H20.2269C19.3257 29.1442 18.5946 29.8797 18.5946 30.7861V43.9999H7.8038C6.35853 43.9999 4.97062 43.0016 4.97062 41.5992V22.297C9.10248 23.0665 13.5937 21.0571 15.942 17.643L15.9415 17.6435ZM14.917 9.26967L15.5653 0H6.25994C4.94428 0 3.56704 0.998331 3.27795 2.23609C2.91663 3.79669 0.5 13.7862 0.5 14.5092C0.5 17.7073 6.50642 21.4059 11.6395 17.4678C12.9679 16.4502 13.9244 15.0799 14.1752 13.6155L14.917 9.26967ZM31.859 9.75067C31.8505 9.68653 31.8462 9.6224 31.8462 9.56041L31.1937 0.000136742H18.8321L17.916 13.4105C17.7014 16.5679 22.2009 19.3921 25.3954 19.1716C28.2732 18.9749 32.3115 16.4459 32.1075 13.4105L31.859 9.75067Z" fill="#FAD9CB"/>
</svg>