<svg xmlns="http://www.w3.org/2000/svg" width="52" height="46" viewBox="0 0 52 46" fill="none">
  <path fill-rule="evenodd" clip-rule="evenodd" d="M11.0847 19.8827C13.7252 20.6691 15.5621 23.1116 15.5621 25.8791V29.6619H17.8302C17.8302 31.5813 17.8302 33.5014 17.8302 35.4208H14.7355V39.2324H15.2428V43.9774C14.0459 43.9774 12.8484 43.9774 11.6515 43.9774V39.2324H12.1588V35.4208H5.75413V39.2324H6.26215V43.9774C5.06459 43.9774 3.86774 43.9774 2.67018 43.9774V39.2324H3.17748V35.4208H0.0827637C0.0827637 33.5014 0.0827637 31.5813 0.0827637 29.6619H2.35088V25.8791C2.35088 22.9917 4.34777 20.4725 7.14327 19.798C8.71897 8.74157 18.2263 0.5 29.4169 0.5C41.8431 0.5 51.9173 10.5741 51.9173 22.9996C51.9173 35.4259 41.8431 45.5 29.4169 45.5V41.5923C39.6862 41.5923 48.0096 33.269 48.0096 22.9996C48.0096 12.731 39.6862 4.40696 29.4169 4.40696C20.348 4.40696 12.5901 10.9616 11.0847 19.8827ZM30.9983 8.90875L22.4016 23.1073C21.9467 23.842 21.0246 24.9578 22.6312 25.1192L28.3363 25.6545L26.6372 36.4627C26.3294 38.418 28.3506 38.7724 29.2375 37.3065L37.8343 23.1073C38.2892 22.3725 39.2112 21.2575 37.6046 21.0953L31.8996 20.5608L33.5987 9.75257C33.9058 7.7973 31.8852 7.44284 30.9983 8.90875ZM13.1167 42.5122H13.7776V40.6976H13.1167V42.5122ZM4.13538 42.5122H4.79695V40.6976H4.13538V42.5122Z" fill="#FAD9CB"/>
</svg>