<svg xmlns="http://www.w3.org/2000/svg" width="50" height="38" viewBox="0 0 50 38" fill="none">
  <path d="M23.4676 0.0266785C31.7246 -0.278921 39.7099 2.04099 46.4125 6.8292C47.2338 7.41543 49.2555 8.84939 49.6228 9.7133C50.4749 11.7173 48.706 13.7596 46.5888 13.2086C45.8498 13.0161 44.5275 11.7526 43.8281 11.2545C32.5709 3.24429 17.6186 3.20609 6.33049 11.1752C5.62527 11.6732 4.12959 13.0352 3.41995 13.2086C1.33512 13.7214 -0.483785 11.757 0.377182 9.76325C0.792974 8.79944 2.88956 7.32874 3.79901 6.68963C9.52606 2.66394 16.4388 0.2882 23.4676 0.0281469V0.0266785Z" fill="#F5B498"/>
  <path d="M23.8143 7.90321C30.251 7.62552 36.6289 9.59282 41.8623 13.2776C42.7306 13.8888 43.928 14.647 44.1631 15.7474C44.6597 18.0644 42.3001 19.7937 40.2506 18.5683C39.5586 18.154 38.8666 17.5428 38.1584 17.0962C29.8969 11.8672 19.8915 11.9201 11.677 17.2108C10.9042 17.7088 9.79494 18.7167 8.94866 18.9092C6.86383 19.3808 5.09928 17.2284 6.01167 15.2817C6.42747 14.3943 8.03627 13.3496 8.87079 12.7943C13.3005 9.85728 18.4825 8.13387 23.8143 7.90321Z" fill="#F5B498"/>
  <path d="M24.211 15.8944C28.5452 15.7504 33.8095 17.0991 37.3268 19.7041C40.2006 21.8315 37.6647 25.7881 34.7307 24.4849C34.0328 24.1749 33.1851 23.48 32.446 23.0906C27.743 20.612 22.5684 20.5503 17.8213 22.9569C16.1141 23.8223 14.3672 25.7161 12.4366 24.1279C10.8175 22.7968 11.2318 20.7134 12.8451 19.5909C15.9863 17.4032 20.3925 16.0207 24.211 15.8944Z" fill="#F5B498"/>
  <path d="M24.0464 23.8854C26.3399 23.7209 29.6266 24.3483 31.5498 25.6617C33.3672 26.9032 32.9882 29.8064 30.8872 30.4955C29.6001 30.9186 29.0594 30.3721 27.9663 29.9357C25.9638 29.135 23.9215 29.1952 21.9337 29.993C20.9831 30.375 20.535 30.8275 19.4007 30.5675C17.4907 30.1311 16.6283 27.8215 17.8522 26.2553C18.8909 24.9242 22.4053 24.003 24.0479 23.8854H24.0464Z" fill="#F5B498"/>
  <path d="M27.0672 37.1864C25.4686 38.7188 22.6463 37.9842 22.1026 35.8391C21.5061 33.4825 23.5337 31.4388 25.8815 32.1191C28.0927 32.7596 28.7171 35.6085 27.0686 37.1879L27.0672 37.1864Z" fill="#F5B498"/>
</svg>