<svg width="31" height="30" viewBox="0 0 31 30" fill="none" xmlns="http://www.w3.org/2000/svg">
<g id="uiw:facebook">
<path id="Vector" fill-rule="evenodd" clip-rule="evenodd" d="M26.6752 3H5.3248C4.5928 3 4 3.5928 4 4.3248V25.6752C4 26.4072 4.5928 27 5.3248 27H16.8184V17.706H13.6912V14.0844H16.8184V11.412C16.8184 8.3112 18.712 6.624 21.478 6.624C22.8028 6.624 23.9404 6.7224 24.2728 6.7668V10.0068H22.3552C20.8504 10.0068 20.56 10.722 20.56 11.7708V14.0832H24.1468L23.6788 17.7048H20.5588V27H26.6752C27.4072 27 28 26.4072 28 25.6752V4.3248C28 3.5928 27.4072 3 26.6752 3Z" fill="#e55d19"/>
</g>
</svg>
