<svg width="31" height="30" viewBox="0 0 31 30" fill="none" xmlns="http://www.w3.org/2000/svg">
<g id="instagram">
<path id="icon instagram" d="M10.96 3H21.04C24.88 3 28 6.12 28 9.96V20.04C28 21.8859 27.2667 23.6562 25.9615 24.9615C24.6562 26.2667 22.8859 27 21.04 27H10.96C7.12 27 4 23.88 4 20.04V9.96C4 8.11409 4.73328 6.34379 6.03854 5.03854C7.34379 3.73328 9.11409 3 10.96 3ZM10.72 5.4C9.57427 5.4 8.47546 5.85514 7.6653 6.6653C6.85514 7.47546 6.4 8.57427 6.4 9.72V20.28C6.4 22.668 8.332 24.6 10.72 24.6H21.28C22.4257 24.6 23.5245 24.1449 24.3347 23.3347C25.1449 22.5245 25.6 21.4257 25.6 20.28V9.72C25.6 7.332 23.668 5.4 21.28 5.4H10.72ZM22.3 7.2C22.6978 7.2 23.0794 7.35804 23.3607 7.63934C23.642 7.92064 23.8 8.30218 23.8 8.7C23.8 9.09783 23.642 9.47936 23.3607 9.76066C23.0794 10.042 22.6978 10.2 22.3 10.2C21.9022 10.2 21.5206 10.042 21.2393 9.76066C20.958 9.47936 20.8 9.09783 20.8 8.7C20.8 8.30218 20.958 7.92064 21.2393 7.63934C21.5206 7.35804 21.9022 7.2 22.3 7.2ZM16 9C17.5913 9 19.1174 9.63214 20.2426 10.7574C21.3679 11.8826 22 13.4087 22 15C22 16.5913 21.3679 18.1174 20.2426 19.2426C19.1174 20.3679 17.5913 21 16 21C14.4087 21 12.8826 20.3679 11.7574 19.2426C10.6321 18.1174 10 16.5913 10 15C10 13.4087 10.6321 11.8826 11.7574 10.7574C12.8826 9.63214 14.4087 9 16 9ZM16 11.4C15.0452 11.4 14.1295 11.7793 13.4544 12.4544C12.7793 13.1295 12.4 14.0452 12.4 15C12.4 15.9548 12.7793 16.8705 13.4544 17.5456C14.1295 18.2207 15.0452 18.6 16 18.6C16.9548 18.6 17.8705 18.2207 18.5456 17.5456C19.2207 16.8705 19.6 15.9548 19.6 15C19.6 14.0452 19.2207 13.1295 18.5456 12.4544C17.8705 11.7793 16.9548 11.4 16 11.4Z" fill="#BB3900"/>
</g>
</svg>
