<svg width="35" height="35" viewBox="0 0 35 35" fill="none" xmlns="http://www.w3.org/2000/svg">
<g id="mdi:youtube">
<path id="Vector" d="M14.5834 21.875L22.1521 17.5L14.5834 13.125V21.875ZM31.4417 10.4563C31.6313 11.1417 31.7625 12.0604 31.85 13.2271C31.9521 14.3938 31.9959 15.4 31.9959 16.275L32.0834 17.5C32.0834 20.6938 31.85 23.0417 31.4417 24.5438C31.0771 25.8563 30.2313 26.7021 28.9188 27.0667C28.2334 27.2563 26.9792 27.3875 25.0542 27.475C23.1584 27.5771 21.4229 27.6209 19.8188 27.6209L17.5 27.7084C11.3896 27.7084 7.58335 27.475 6.08127 27.0667C4.76877 26.7021 3.92294 25.8563 3.55835 24.5438C3.36877 23.8584 3.23752 22.9396 3.15002 21.7729C3.04794 20.6063 3.00419 19.6 3.00419 18.725L2.91669 17.5C2.91669 14.3063 3.15002 11.9584 3.55835 10.4563C3.92294 9.14377 4.76877 8.29794 6.08127 7.93335C6.76669 7.74377 8.02085 7.61252 9.94585 7.52502C11.8417 7.42294 13.5771 7.37919 15.1813 7.37919L17.5 7.29169C23.6104 7.29169 27.4167 7.52502 28.9188 7.93335C30.2313 8.29794 31.0771 9.14377 31.4417 10.4563Z" fill="#e55d19"/>
</g>
</svg>
