<svg width="33" height="33" viewBox="0 0 33 33" fill="none" xmlns="http://www.w3.org/2000/svg">
<g id="uiw:facebook">
<path id="Vector" fill-rule="evenodd" clip-rule="evenodd" d="M26.7304 5H6.2696C5.5681 5 5 5.5681 5 6.2696V26.7304C5 27.4319 5.5681 28 6.2696 28H17.2843V19.0933H14.2874V15.6226H17.2843V13.0615C17.2843 10.0899 19.099 8.473 21.7497 8.473C23.0194 8.473 24.1095 8.5673 24.4281 8.60985V11.7148H22.5904C21.1483 11.7148 20.87 12.4002 20.87 13.4053V15.6214H24.3073L23.8589 19.0921H20.8688V28H26.7304C27.4319 28 28 27.4319 28 26.7304V6.2696C28 5.5681 27.4319 5 26.7304 5Z" fill="#F8F2EE"/>
</g>
</svg>
