<svg width="35" height="35" viewBox="0 0 35 35" fill="none" xmlns="http://www.w3.org/2000/svg">
<g id="ic:baseline-tiktok">
<path id="Vector" d="M22.4872 11.0574C21.7463 10.2112 21.3379 9.12473 21.338 8H17.9879V21.4439C17.9626 22.1716 17.6556 22.861 17.1317 23.3667C16.6078 23.8724 15.908 24.1548 15.1798 24.1543C13.6403 24.1543 12.361 22.8967 12.361 21.3355C12.361 19.4707 14.1607 18.0721 16.0147 18.6467V15.2207C12.2742 14.7219 9 17.6276 9 21.3355C9 24.9458 11.9923 27.5153 15.169 27.5153C18.5733 27.5153 21.338 24.7506 21.338 21.3355V14.5159C22.6965 15.4915 24.3275 16.015 26 16.0121V12.662C26 12.662 23.9617 12.7596 22.4872 11.0574Z" fill="#F8F2EE"/>
</g>
</svg>
