<svg width="29" height="28" viewBox="0 0 29 28" fill="none" xmlns="http://www.w3.org/2000/svg">
<path d="M22.725 5.72856C21.6552 4.64835 20.3812 3.79185 18.9771 3.20898C17.573 2.62611 16.0669 2.32852 14.5467 2.33356C8.17666 2.33356 2.985 7.52523 2.985 13.8952C2.985 15.9369 3.52166 17.9202 4.525 19.6702L2.89166 25.6669L9.01666 24.0569C10.7083 24.9786 12.61 25.4686 14.5467 25.4686C20.9167 25.4686 26.1083 20.2769 26.1083 13.9069C26.1083 10.8152 24.9067 7.91023 22.725 5.72856ZM14.5467 23.5086C12.82 23.5086 11.1283 23.0419 9.64666 22.1669L9.29666 21.9569L5.65666 22.9136L6.625 19.3669L6.39166 19.0052C5.43214 17.4735 4.92274 15.7027 4.92166 13.8952C4.92166 8.59856 9.23833 4.28189 14.535 4.28189C17.1017 4.28189 19.5167 5.28523 21.325 7.10523C22.2206 7.9964 22.9302 9.05653 23.4129 10.2241C23.8955 11.3917 24.1416 12.6435 24.1367 13.9069C24.16 19.2036 19.8433 23.5086 14.5467 23.5086ZM19.82 16.3219C19.5283 16.1819 18.105 15.4819 17.8483 15.3769C17.58 15.2836 17.3933 15.2369 17.195 15.5169C16.9967 15.8086 16.4483 16.4619 16.285 16.6486C16.1217 16.8469 15.9467 16.8702 15.655 16.7186C15.3633 16.5786 14.43 16.2636 13.3333 15.2836C12.47 14.5136 11.8983 13.5686 11.7233 13.2769C11.56 12.9852 11.7 12.8336 11.8517 12.6819C11.98 12.5536 12.1433 12.3436 12.2833 12.1802C12.4233 12.0169 12.4817 11.8886 12.575 11.7019C12.6683 11.5036 12.6217 11.3402 12.5517 11.2002C12.4817 11.0602 11.8983 9.63689 11.665 9.05356C11.4317 8.49356 11.1867 8.56356 11.0117 8.55189H10.4517C10.2533 8.55189 9.95 8.62189 9.68166 8.91356C9.425 9.20523 8.67833 9.90523 8.67833 11.3286C8.67833 12.7519 9.71666 14.1286 9.85666 14.3152C9.99666 14.5136 11.8983 17.4302 14.7917 18.6786C15.48 18.9819 16.0167 19.1569 16.4367 19.2852C17.125 19.5069 17.755 19.4719 18.2567 19.4019C18.8167 19.3202 19.9717 18.7019 20.205 18.0252C20.45 17.3486 20.45 16.7769 20.3683 16.6486C20.2867 16.5202 20.1117 16.4619 19.82 16.3219Z" fill="#FCFAF6"/>
</svg>
